<svg xmlns="http://www.w3.org/2000/svg" xmlns:xlink="http://www.w3.org/1999/xlink" viewBox="0 0 180.54 287.49">
    <defs>
        <linearGradient id="A" x1="560" y1="422.5" x2="740" y2="422.5" xlink:href="#I">
            <stop offset="0" stop-color="#242424"/>
            <stop offset=".25" stop-color="#262626"/>
            <stop offset=".34" stop-color="#2d2d2d"/>
            <stop offset=".41" stop-color="#383838"/>
            <stop offset=".46" stop-color="#494949"/>
            <stop offset=".5" stop-color="#5b5b5b"/>
            <stop offset=".54" stop-color="#494949"/>
            <stop offset=".59" stop-color="#383838"/>
            <stop offset=".66" stop-color="#2d2d2d"/>
            <stop offset=".75" stop-color="#262626"/>
            <stop offset="1" stop-color="#242424"/>
        </linearGradient>
        <linearGradient id="B" x1="610" y1="407.5" x2="690" y2="407.5" xlink:href="#I">
            <stop offset="0" stop-color="#d2d2d2"/>
            <stop offset=".5" stop-color="#fafafa"/>
            <stop offset="1" stop-color="#d2d2d2"/>
        </linearGradient>
        <radialGradient id="C" cx="409.65" cy="434.55" r="82.01" gradientTransform="translate(164.81 105.65) scale(1.19 0.82)" xlink:href="#I">
            <stop offset=".01" stop-color="#24c9e7"/>
            <stop offset=".09" stop-color="#24a3ba"/>
            <stop offset=".27" stop-color="#24484f"/>
            <stop offset=".36" stop-color="#242424"/>
            <stop offset=".58" stop-color="#5b5b5b"/>
            <stop offset=".92" stop-color="#242424"/>
        </radialGradient>
        <radialGradient id="D" cx="409.3" cy="225.59" r="45.73" gradientTransform="translate(164.81 105.65) scale(1.19 0.82)" xlink:href="#I">
            <stop offset="0" stop-color="#31cce8"/>
            <stop offset=".21" stop-color="#b0ebf3"/>
            <stop offset=".42" stop-color="#00b4dc"/>
            <stop offset=".45" stop-color="#02b4dc"/>
            <stop offset=".47" stop-color="#09b5dc"/>
            <stop offset=".48" stop-color="#16b7db"/>
            <stop offset=".49" stop-color="#28bada"/>
            <stop offset=".5" stop-color="#3fbdd9"/>
            <stop offset=".51" stop-color="#5bc1d8"/>
            <stop offset=".51" stop-color="#7dc6d6"/>
            <stop offset=".52" stop-color="#a4cbd4"/>
            <stop offset=".52" stop-color="#cfd2d2"/>
            <stop offset=".52" stop-color="#d2d2d2"/>
            <stop offset=".53" stop-color="#d0d0d0"/>
            <stop offset=".53" stop-color="#c9c9c9"/>
            <stop offset=".53" stop-color="#bebebe"/>
            <stop offset=".53" stop-color="#adadad"/>
            <stop offset=".53" stop-color="#979797"/>
            <stop offset=".53" stop-color="#7b7b7b"/>
            <stop offset=".53" stop-color="#5b5b5b"/>
            <stop offset=".53" stop-color="#373737"/>
            <stop offset=".53" stop-color="#242424"/>
            <stop offset=".64" stop-color="#444"/>
            <stop offset=".74" stop-color="#5b5b5b"/>
            <stop offset=".85" stop-color="#595959"/>
            <stop offset=".9" stop-color="#515151"/>
            <stop offset=".94" stop-color="#434343"/>
            <stop offset=".98" stop-color="#303030"/>
            <stop offset="1" stop-color="#242424"/>
        </radialGradient>
        <radialGradient id="E" cx="397.15" cy="288.14" r="4.14" gradientTransform="translate(164.81 105.65) scale(1.19 0.82)" xlink:href="#I">
            <stop offset="0" stop-color="#b0ebf3"/>
            <stop offset="1" stop-color="#00b4dc"/>
        </radialGradient>
        <radialGradient id="F" cx="422.46" xlink:href="#E"/>
        <radialGradient id="G" cx="377.66" cy="455.34" r="6.92" xlink:href="#E"/>
        <radialGradient id="H" cx="440.94" cy="455.34" r="6.92" xlink:href="#E"/>
        <linearGradient id="I" gradientUnits="userSpaceOnUse"/>
    </defs>
    <g transform="translate(-559.73 -279.75)" stroke-miterlimit="10">
        <path d="M725 465c-14.86 0-40-25.88-40-30 0-14-5.19-47-15-60-3.76-5-19.83-16.81-10-20 2.91-.94 15 0 15-15 0-31-15-60-25-60s-25 30-25 60
        c0 15 12.09 14.06 15 15 9.83 3.19-6.24 15-10 20-9.81 13-15 46-15 60 0 4.12-25.21 31.48-40 30-10-1-15 75-15 75s10 0 25-40c14-25 25 0 25 0
        v65s6-26.65 25-25c6 .52 10 15 10 15h10s4-14.48 10-15c19-1.65 25 25 25 25v-65s10-25 25 0c15 40 25 40 25 40s-6-75-15-75z"
        stroke="#242424" stroke-width=".5" fill="url(#A)"/>
        <g stroke-width=".25">
            <path d="M665 370c5 5 5 10 5 15 0 4.28 5 30 5 30s-1.7 5-10 5h-30c-8.3 0-10-5-10-5s5-25.72 5-30c0-5 0-10 5-15-40 25-20 65-20 65s.78 7.53 15 10
            c1-4.9 39-4.9 40 0 14.22-2.47 15-10 15-10s20-40-20-65z" stroke="#d2d2d2" fill="url(#B)"/>
            <g stroke="#242424">
                <path d="M695 455c-20.74 0-25-10-25-10v30s-1.59 4.41-20 5c-18.41-.59-20-5-20-5v-30s-4.26 10-25 10c-.59 7-2.14 16.55 0 20 2.72 4.38 20 10 20 10
                s-2.43 22.92-1.64 30.69L625 530s15.58-4.4 25-5c9.42.6 25 5 25 5s2.59-11.38 2.89-14.31C678.67 507.92 675 485 675 485s17.28-5.62 20-10
                c2.14-3.45.59-13 0-20z" fill="url(#C)"/>
                <path d="M650 285c-5 0-15 15-20 35-2.43 9.7 0 20 0 20l5 5h30l5-5s2.43-10.3 0-20c-5-20-15-35-20-35z" fill="url(#D)"/>
            </g>
            <g stroke="#00b4dc">
                <path d="M630.74 340.68c-1.94.07 0 5 5 5h5c2.31.08-4.91-3.4-5-5s-2.86-.08-5 0z" fill="url(#E)"/>
                <path d="M670.46 340.68c-2.14-.08-4.92-1.49-5 0s-7.32 5.08-5 5h5c5 0 6.94-4.93 5-5z" fill="url(#F)"/>
                <path d="M605 475c-2.39 1.59 2.66 8.37 5 10s7.69 1.65 10 0-2.84-3.13-5-5c-1.91-1.65-7.8-6.47-10-5z" fill="url(#G)"/>
                <path d="M695 475c-2.2-1.47-8.09 3.35-10 5-2.16 1.87-7.4 3.28-5 5s7.66 1.63 10 0 7.39-8.41 5-10z" fill="url(#H)"/>
            </g>
        </g>
    </g>
</svg>
